<?xml version="1.0" encoding="utf-8"?>
<!-- Generator: Adobe Illustrator 18.1.1, SVG Export Plug-In . SVG Version: 6.00 Build 0)  -->
<svg version="1.1" id="Layer_1" xmlns="http://www.w3.org/2000/svg" xmlns:xlink="http://www.w3.org/1999/xlink" x="0px" y="0px"
	 viewBox="0 0 612 792" enable-background="new 0 0 612 792" xml:space="preserve">
<g display="none">
	<path display="inline" fill="#00589C" d="M603.4,399.3c0,0.6,0,1.3,0,1.9c-0.8,2.5-0.8,5,0,7.5c0,1.3,0,2.5,0,3.8
		c-1.4,8-0.8,16.1-2.4,24.1c-5.3,25.7-16.5,48.7-31.7,69.8c-17,23.6-38.2,42.8-62.2,59c-18.1,12.3-37.6,22.2-58,30.3
		c-24.1,9.6-48.9,16-74.3,20.9c-16.7,3.2-33.5,5.9-50.6,5.6c-0.8,0-1.6-0.1-2.2,0.5c-2.8,0-5.6,0-8.4,0c-3.1-0.8-6.3-0.8-9.4,0
		c-0.3,0-0.6,0-0.9,0c-9-1-18-1.2-26.9-1.8c-20.8-1.4-41.1-5.4-61.3-10.3c-17.7-4.3-34.9-9.9-51.6-16.9
		c-14.7-6.1-28.9-13.2-42.4-21.8c-11.4-7.2-22.4-14.7-32.8-23.3c-21.2-17.6-38.9-38.2-52.7-62.2c-9-15.8-15.2-32.5-18.9-50.2
		c-1.6-7.4-0.9-15.2-2.3-22.7c0-0.6,0-1.3,0-1.9c1-2.2,0.2-4.4,0.5-6.6c-0.2-2.5,0.5-5-0.5-7.4c0-2.8,0-5.6,0-8.4
		c1.3-7.8,0.7-15.8,2.3-23.6c4.1-19.9,11.6-38.5,22.1-55.9C50,291.2,63.7,275,79.4,260.6c11.2-10.2,23.2-19.3,36-27.6
		c21.5-14,44.4-24.7,68.6-33c20.2-7,40.9-12.4,62.1-16.1c18.3-3.1,36.6-5.8,55.3-5.6c5.1,0,10.1,0,15.1,0
		c22.9-0.3,45.3,3.6,67.6,8.1c24.1,4.9,47.6,11.8,70.3,21.2c14.1,5.9,28,12.4,41,20.5c21.5,13.4,41.5,28.9,58.5,47.8
		c23.2,25.7,40.2,54.8,47.1,89.1c1.7,8.2,1.8,16.7,1.9,25.1C603.2,393.2,602.4,396.3,603.4,399.3z"/>
	<path display="inline" fill="#FFFFFF" d="M196.2,399.9c0-40.5-0.1-81,0.1-121.4c0-5-1.5-5.9-6-5.8c-8.4,0.4-16.9-0.1-25.3,0.2
		c-3.4,0.1-4.3-1-4.1-4.2c0.2-5.8,0.2-11.6,0-17.3c-0.1-2.7,0.5-3.9,3.6-3.9c48.6,0.1,97.2-0.1,145.8,0.3c20.8,0.2,41.4,3.5,61,11.1
		c37.6,14.5,62.6,41.2,74.2,79.5c12.4,41.1,12.5,82.7-0.3,123.7c-14.6,46.7-47.4,74.2-94.6,85.4c-16.5,3.9-33.3,5.1-50.2,5
		c-44.7,0-89.4-0.1-134.1,0.1c-4.2,0-5.8-0.9-5.5-5.3c0.4-5.4,0.2-10.9,0-16.4c-0.1-2.8,0.8-3.8,3.7-3.8c8.9,0.2,17.8-0.1,26.7,0.1
		c3.8,0.1,5-0.9,4.9-4.9C196.1,481.5,196.2,440.7,196.2,399.9z"/>
	<path display="inline" fill="#1D87C9" d="M539.6,405c16.4,0,32.8,0.1,49.2-0.1c4.2-0.1,5.4,1.2,5,5.4
		c-4.4,52.3-29.9,93.1-68.6,126.8c-8,7-16.6,13.3-25.3,19.3c-2.3,1.6-4.1,1.9-6.7,0.3c-16.2-10.2-33.2-18.7-51.1-25.4
		c-4.4-1.6-2.7-3.3-0.9-5.6c17.6-23,30.4-48.3,37.5-76.5c3.1-12.5,5.2-25.1,5.8-37.9c0.3-6.4,0.4-6.4,6.9-6.4
		C507.4,405,523.5,405,539.6,405z"/>
	<path display="inline" fill="#1D87C9" d="M539.5,396.3c-15.8,0-31.6,0-47.3,0c-7.3,0-7.3,0-7.7-7.5c-1.4-28-8.8-54.5-21.3-79.5
		c-5.2-10.5-11.2-20.6-18.4-29.9c-2.8-3.6-2.1-4.8,2-6.4c17.5-6.9,34.2-15.4,49.9-25.7c2.1-1.4,3.9-2.2,6.3-0.5
		c38.9,27.1,69.1,61.1,84,107.1c3.9,12.3,5.8,24.9,7,37.7c0.3,3.4-0.6,4.8-4.3,4.7C572.9,396.2,556.2,396.3,539.5,396.3z"/>
	<path display="inline" fill="#1D87C9" d="M76.8,405c15.6,0,31.2,0.1,46.9-0.1c4.3-0.1,5.8,1.3,6,5.5c1.7,37.6,13.7,71.8,34.4,103.1
		c1.6,2.4,2.4,3.7-1.6,4.3c-8,1.3-11.4,4.5-10.7,12.6c0.8,9-2.6,13.6-10.6,16.8c-6,2.4-11.5,6.3-17.1,9.7c-2,1.2-3.5,1.2-5.5-0.1
		c-38.6-26-69.2-58.7-85.4-103.2c-5.2-14.3-7.9-29.2-9.3-44.3c-0.3-3.8,1.4-4.4,4.6-4.4C44.6,405.1,60.7,405,76.8,405z"/>
	<path display="inline" fill="#1D87C9" d="M166.5,282.5c-4.3,7.2-8.5,14-12.3,20.9c-14.6,26.4-22.8,54.7-24.5,84.8
		c-0.5,8-0.4,8-8.2,8c-30.8,0-61.6,0-92.4,0c-3.5,0-5.5-0.3-5.2-4.8c2.3-30.1,12-57.7,28.7-82.8c16.4-24.7,37.4-44.7,61.7-61.5
		c2.4-1.6,4.2-1.9,6.7-0.2c8.5,5.8,17.6,10.8,26.8,15.4c2,1,3.5,2.1,3.7,4.8C152.5,280.1,153.3,280.8,166.5,282.5z"/>
	<path display="inline" fill="#1D87C9" d="M328,195.5c11.2-2.9,21.4-3,31.8-1.5c41,5.8,80.2,17.4,116.8,36.9
		c4.1,2.2,8.1,4.7,12.2,6.9c2.1,1.2,3.1,2.1,0.4,3.8c-16,10.1-32.9,18.4-50.5,25.5c-2.5,1-3.7-0.2-5.2-1.8
		c-19.9-23.1-43.7-41.4-70.9-55.2c-9.6-4.9-19.5-9.2-29.7-12.7C331.6,196.9,330.2,196.3,328,195.5z"/>
	<path display="inline" fill="#1D87C9" d="M487.6,564c-8.6,5.5-17.3,9.9-26.2,14c-34,15.9-69.9,25.1-106.9,30.1
		c-8.5,1.1-17-1.3-25.5-2.6c0.1-1.7,1.4-1.6,2.3-1.9c25.1-8.8,48.4-21,69.4-37.4c10.4-8.1,20-17,28.9-26.6c1.8-2,3.5-2.7,6.1-1.6
		c17.2,6.7,33.8,14.6,49.6,24.3C486,562.6,486.6,563.2,487.6,564z"/>
	<path display="inline" fill="#1D87C9" d="M186.9,338.9c0,17.3-0.1,34.7,0.1,52c0,4-1.2,5.5-5.3,5.4c-12.5-0.2-25-0.2-37.5,0
		c-4.3,0.1-5.3-1.4-5.1-5.5c1.5-32,10.6-61.6,27-89.1c3.5-5.9,7.5-11.5,11.1-17.3c2.1-3.3,5.1-2.7,7.9-2.2c2.9,0.5,1.8,3.3,1.8,5.1
		C187,304.6,186.9,321.8,186.9,338.9z"/>
	<path display="inline" fill="#1D87C9" d="M186.9,461.7c0,16.5,0,33.1-0.1,49.6c0,2.1,1.3,5.2-1.8,6c-3.3,0.8-6.5,0.7-9-2.9
		c-14.2-20.6-25.2-42.6-31.2-67c-3.1-12.4-5.2-25-5.7-37.8c-0.1-3.5,1.1-4.6,4.5-4.6c13,0.1,25.9,0.2,38.9,0c3.6,0,4.5,1.4,4.4,4.7
		C186.9,427,186.9,444.4,186.9,461.7z"/>
	<path display="inline" fill="#1D87C9" d="M285.2,605.1c-12.9,3.8-25.7,2.7-38.6,0.4c-35.5-6.2-69.5-16.7-101.5-33.2
		c-4.8-2.5-9.5-5.2-15.1-8.3c6.8-4.6,13.2-8.2,19.8-11.4c1.6-0.8,2.2,0.3,2.6,1.7c1.5,5.7,5.8,7.3,11.1,7.3c13.3,0,26.5,0,39.8,0
		c2.8,0,5.1,0.6,7.3,2.4c21.5,17.3,45.4,30.2,71.4,39.3c0.9,0.3,1.8,0.6,2.6,1C284.9,604.4,285,604.8,285.2,605.1z"/>
	<path display="inline" fill="#1D87C9" d="M286,193.8c-12.5,4.7-22.1,9.7-28.8,13.5c-15.2,8.7-35.3,20.3-42.6,26.1
		c-4.2,3.3-8.2,4.9-13.6,4.7c-11.5-0.4-23.1-0.1-34.7-0.1c-10.3,0-13.3,2.5-14.7,12.7c-0.5,3.5-2,2.9-4,1.8
		c-6.1-3.5-12.1-7.1-18.3-10.5c-3.1-1.7-2.9-2.8,0.1-4.6c16.9-10,34.5-18.2,52.9-25c52.6-19.3,59.9-18.9,82.3-19.4
		C273.6,192.9,281,193.4,286,193.8z"/>
	<path display="inline" fill="#1D87C9" d="M317.9,202c4.5,1.5,9.1,3,13.7,4.6c36,12.5,66.3,33.6,92.1,61.5c2.6,2.8,2.2,3.6-1.2,4.9
		c-4.2,1.7-7.4,1.4-11-1.6c-21.7-18-47.4-26.6-74.9-30.6c-5.9-0.9-11.8-1.4-17.7-1.9c-2.7-0.2-3.4-1.5-3.4-3.9c0.1-10,0-20,0-30
		C315.6,203.6,315.2,201.7,317.9,202z"/>
	<path display="inline" fill="#1D87C9" d="M316.5,580c0-3.9,0-7.8,0-11.7c0-6.9,0-7,6.8-7.5c11.6-0.8,22.9-3,34.1-5.7
		c18.1-4.5,34.8-11.9,49.8-23c2.9-2.2,11.3-1.6,13.8,0.9c1.7,1.7-0.3,2.5-1.1,3.3c-9.7,9.9-20,19.3-31.2,27.6
		c-20.6,15.3-43.6,26-68,33.7c-3.3,1-4.5,0.7-4.3-3.1C316.7,589.7,316.5,584.8,316.5,580z"/>
	<path display="inline" fill="#1D87C9" d="M222.6,561.9c2.7-0.1,4.1-0.2,5.4-0.2c24.2,0,48.4,0.1,72.6-0.1c4.3,0,5.7,1.2,5.6,5.5
		c-0.3,9.4-0.1,18.7-0.1,28.1c0,5.9-0.1,6.1-5.7,4.5c-18.8-5.5-36.9-12.6-54-22.2C238.5,573,231,568,222.6,561.9z"/>
	<path display="inline" fill="#1D87C9" d="M223.7,238.1c9.5-7.6,18.8-12.9,28.2-18c15-8.1,31-14,47.3-18.9c5.9-1.8,6-1.6,6,4.4
		c0,9.4,0,18.7,0,28.1c0,2.7-0.4,4.4-3.8,4.4C276,238,250.6,238.1,223.7,238.1z"/>
	<path display="inline" fill="#1D87C9" d="M474.9,412.7c-2.2,28-9.5,54.6-23.1,79.3c-5.9,10.7-12.3,21-19.9,30.6
		c-2.6,3.3-8.9,3.8-11.8,0.9c-1.7-1.7,0.3-2.5,1.1-3.3c6.1-6.1,11.4-12.8,16.2-19.9c13.2-19.7,19.8-41.8,23.6-65
		c1.4-8.5,2-17,2.3-25.6c0.3-6.4,4.7-4.3,8-4.6c4.3-0.4,3.6,2.7,3.6,5.3C474.9,411.1,474.9,411.9,474.9,412.7z"/>
	<path display="inline" fill="#1D87C9" d="M474.9,388.5c0,0.5,0,0.9,0,1.4c0.1,5.9-3.9,8.4-9.6,6.2c-2-0.8-1.6-2.4-1.7-3.9
		c-1.1-16.5-2.8-32.9-7-49c-5.8-21.8-15.4-41.5-30.6-58.3c-2.3-2.5-2-3.4,1.2-4.7c4.2-1.8,6.5-0.8,9.1,3
		c15,21.4,26.8,44.3,33.2,69.8C472.3,364.7,474.2,376.5,474.9,388.5z"/>
	<path display="inline" fill="#00589C" d="M344.4,513.9c-22.2,0.2-42.6-2.6-61.8-10.8c-34-14.5-54.9-40.4-62.7-76.4
		c-13.5-62,26.5-124.7,88.6-138c24.8-5.3,49.6-5.3,74.3,0.2c8.1,1.8,10.5,5.8,9.2,13.9c-1.8,10.6-3.4,21.3-5.2,31.9
		c-1.3,7.7-5.8,10.6-13.4,8.6c-13.8-3.5-27.8-5.4-42.2-4.3c-22.6,1.7-37.2,13.7-44.2,34.6c-8.6,25.5-4,53.4,17.5,72.5
		c11.6,10.3,25.6,13.7,40.7,14c14.6,0.3,28.9-2.1,43-5.6c8.2-2,14,2.8,13.3,11.2c-0.8,10.7-1.7,21.5-2.6,32.2
		c-0.6,6.7-3,9.4-9.5,10.8c-5.6,1.2-11.3,2.3-17,3.2C362.7,513.2,352.9,514.1,344.4,513.9z"/>
	<path display="inline" fill="#1D87C9" d="M344.8,504.4c-23.9,0.3-45.6-2.4-65.4-13c-31.1-16.6-48.6-42.7-52.2-77.8
		c-3.6-35.5,8.4-65.3,33.8-90c17.3-16.8,38.5-25.3,62-28.3c18.4-2.4,36.7-1.8,55,1.7c4.1,0.8,5.4,2.3,4.6,6.6
		c-1.7,8.7-3.1,17.5-4.3,26.3c-0.5,4-1.9,4.9-5.8,3.8c-15-4-30.3-5.7-45.9-3.7c-25.3,3.4-41.6,18-48.8,42
		c-8.9,29.8-3.9,56.9,19,79.3c11.2,11,25.2,15.7,40.6,17.3c17.2,1.7,33.9-0.9,50.5-5c3.4-0.8,4.7-0.2,4.4,3.4
		c-0.9,9.3-1.8,18.6-2.3,28c-0.2,3.7-2,4.7-5.1,5.3C371,503,357.2,505,344.8,504.4z"/>
</g>
<g>
	<path fill="#00589C" d="M305,178.4c20-0.6,38.3,3.1,56.6,6.2c15.8,2.7,31.6,5.7,47.1,10c26.7,7.4,52.3,17.5,76.5,31.2
		c22.9,13,43.9,28.7,62,47.8c30,31.8,49.2,69,53.2,113.1c3.3,36.9-5.9,70.9-24.4,102.6c-17.8,30.6-42.7,54.6-71.7,74.3
		c-29.9,20.3-62.9,34.2-97.7,43.6c-24,6.5-48.5,10.6-72.9,14.2c-14.2,2.1-28.9,2.2-43.5,0c-12.2-1.8-24.5-3-36.7-4.4
		c-12.5-1.5-24.8-4.3-37.1-7.2c-25.4-6.1-50-14.6-73.4-26.2c-26.2-12.9-50.3-29-71.2-49.6c-32.5-31.9-53.9-69.8-59.3-115.6
		c-3.5-28.9,1.5-56.7,12.5-83.4c12.7-30.8,32.8-56.2,57.9-77.9c33.8-29.2,72.8-48.3,115.4-60.9c21.7-6.4,43.8-10.9,66.3-14.1
		C278.4,180.2,292.2,177.6,305,178.4z"/>
	<path fill="#C3E4EB" d="M188.7,546.7c1.9-1.8,3.4-3.9,4-6.4c0.7-2.5-0.3-5.4,1.8-7.6c0.7-2.8,1.1-5.6,0.9-8.4
		c-1.5-1.7-1.6-3.8-1.3-5.8c1.3-9.2,0.7-18.4,0.7-27.7c0.1-24.6,0-49.2,0.1-73.7c0-4.4-0.2-8.7,0.9-13c1.1-4.6-0.7-9.3-0.7-14
		c0-32.6,0-65.1,0-97.7c0-2.3,0.2-4.7-0.3-7c-0.1-1,0.1-1.9,0.7-2.6c-0.1-3.1-0.1-6.1-0.2-9.2c-2.7-4.1-1.9-8.8-2.5-13.3
		c-0.8-2.8-2.2-5.1-4.7-6.7c-6.5-2.7-12.9-5.6-19.6-7.5c-0.5-0.1-0.9-0.4-1.2-0.7c-3.8-4.2-2.3-9.2-1.8-13.8
		c0.4-3.5,3.3-5.3,6.7-5.4c14.5-0.3,29.2-0.9,43.6,0.3c6.4,0.5,12.8,1.7,19.3,1.1c0.5-0.1,1.1-0.1,1.6-0.2c2.6-1.3,5.4-1.4,8.2-1.5
		c17.5-0.5,34.9,0.8,52.4,1c1.9,0,3.8,0.1,5.3,1.5c3.4,0.3,6.8,0.6,10.3,0.9c3.1-1.6,6.2-0.3,9.2,0.1c23.5,3.2,45.8,10.1,66,23
		c8,5.1,14.9,11.3,21.9,17.6c1.6,1.5,2.8,3.3,3.5,5.5c1.8,2.2,3.7,4.4,5.5,6.6c3.3,1.6,4.9,4.8,6.7,7.7
		c13.2,20.7,19.9,43.7,22.9,67.8c1.4,11.2,2.2,22.4,1.9,33.6c-0.1,2.2,0,4.4-1.2,6.4c0,2.5,0,5-0.1,7.5c1.4,1.8,1.2,3.8,1.1,5.8
		c-1.8,26.9-6.2,53.3-17.1,78.2c-4.7,10.7-10.5,20.9-17.9,30.1c-1.1,1.4-2.3,2.5-3.9,3.2c-1.9,2.2-3.9,4.4-5.8,6.6
		c0,2-1.4,3-2.7,4.2c-24.2,22.4-53.1,34.2-85.5,37.8c-1.3,0.1-2.5,0.3-3.6-0.5c-3.4,0.3-6.8,0.6-10.2,1c-3.8,2.2-8.2,2.2-12.3,2.2
		c-15.5-0.2-30.9,1.1-46.4,1.1c-2.8,0-5.6-0.1-8.2-1.5c-0.5-0.1-1.1-0.1-1.6-0.2c-6-0.2-11.9,0.3-17.9,0.9
		c-15.3,1.6-30.9,0.9-46.3,0.3c-2.7-0.1-4.7-2-5.4-4.6c-1-3.8-0.8-7.7-0.2-11.6c0.3-1.7,1.4-2.9,3-3.4
		C175.3,552.5,181.9,549.3,188.7,546.7z"/>
	<path fill="#1D87C9" d="M591.6,409.2c-2.3,36.5-16,68.6-38.6,97.2c-15.7,19.8-34.3,36.2-55.2,50.3c-2.4,1.6-4.2,2.1-7,0.4
		c-16.3-10.3-33.5-18.8-51.6-25.5c-2.7-1-3.3-1.8-1.2-4.5c15.4-19.9,27.5-41.7,35-65.9c5-16.1,8.5-32.6,9-49.5
		c0.2-6.6,0.3-6.6,6.6-6.6c32.9,0,65.7,0,98.6,0C590.2,405,592.9,404.9,591.6,409.2z"/>
	<path fill="#1D87C9" d="M537.2,396.4c-16.3,0-32.6,0-48.8,0c-5.8,0-6.1-0.2-6.3-6.5c-0.3-13.2-2.5-26.1-5.7-38.8
		c-6.6-26.3-18-50.2-34.2-71.9c-2.5-3.4-2.4-4.6,1.8-6.3c17.6-7,34.5-15.5,50.3-26c2.2-1.5,3.9-2,6.3-0.3
		c38.2,26.7,68.1,60.1,83.3,105c4.4,13.1,6.4,26.6,7.9,40.3c0.4,3.6-0.8,4.6-4.4,4.5C570.7,396.3,554,396.4,537.2,396.4z"/>
	<path fill="#1D87C9" d="M73.4,405c15.8,0,31.6,0.2,47.4-0.1c4.9-0.1,5.8,2,6,6c1,28.6,8.7,55.4,21.5,80.8
		c6.5,13,14.3,25.3,23.6,36.5c2.3,2.8,1.3,3.3-1.3,4.3c-17.4,6.7-33.9,15.2-49.8,25c-1.7,1-2.7,1.3-4.5,0.1
		c-40.1-26.9-71.5-60.9-87.4-107.4C24.2,436.9,22,423,20.7,409c-0.3-3.5,1.3-4.1,4.3-4.1C41.1,405.1,57.2,405,73.4,405z"/>
	<path fill="#1D87C9" d="M73.4,396.4c-16.1,0-32.2-0.1-48.3,0.1c-3.6,0-4.6-1.1-4.3-4.6c2.4-31.4,12.8-60,30.6-85.8
		c16.2-23.5,36.6-42.9,60.1-59.1c2.4-1.6,4.1-1.8,6.7-0.1c15.2,10,31.3,18.3,48.1,25.1c3,1.2,4.2,2,1.6,5.4
		c-18.9,25.1-31.6,53.1-37.8,83.9c-1.9,9.3-3.3,18.7-3.4,28.3c-0.1,6.8-0.4,6.9-6.8,6.9C104.3,396.4,88.9,396.4,73.4,396.4z"/>
	<path fill="#1D87C9" d="M195.5,284.5c1,1.6,0.6,3.4,0.6,5c0,73.4,0,146.8,0,220.2c0,4.8-0.5,9.7-0.8,14.5c-1.8-0.3-3.4,0.4-5,0.9
		c-9.2,2.9-6.3,3.6-12.1-3.8c-19.3-25.1-32.6-53-38.8-84.2c-1.8-9.1-3.1-18.4-3.3-27.8c-0.1-3.5,0.9-4.6,4.4-4.5
		c15.5,0.2,31,0.1,46.4,0.1c8.4,0,8.4,0,8.3-8.4c-1.5-1.8-1.5-4.1-1.5-6.2c0-33.2,0-66.5,0-99.7
		C193.9,288.5,193.7,286.2,195.5,284.5z"/>
	<path fill="#1D87C9" d="M195.5,284.5c0,37.4-0.1,74.7-0.2,112.1c-18-0.1-36-0.2-54-0.1c-4,0-5.4-0.8-5.2-5.1
		c0.9-22.9,6.2-44.7,14.9-65.7c6.7-16.2,15.9-31.1,26.2-45.3c1.7-2.4,3.2-2.9,5.8-1.9c4.1,1.6,8.3,2.9,12.4,4.3
		C195.4,283.3,195.5,283.9,195.5,284.5z"/>
	<path fill="#1D87C9" d="M325.7,195.1c13.1-4.2,26-2.4,38.9-0.4c22.7,3.6,44.9,9.1,66.6,16.8c20.2,7.2,39.5,16.3,58.1,27.7
		c-5.4,5-11.8,7.9-17.9,11.2c-10.9,5.9-22,11.2-33.4,15.9c-3,1.2-4.9,1.1-7.2-1.6c-15.8-18.6-34.4-34-55.3-46.5
		c-15.2-9.1-31.1-16.6-48-22.1C326.8,195.9,326.4,195.5,325.7,195.1z"/>
	<path fill="#1D87C9" d="M485.5,564.1c-11.6,7.3-23.4,13-35.5,18.2c-31.4,13.7-64.5,21.5-98.3,26.2c-8.6,1.2-17.3-1.4-26.5-2.8
		c4.9-3,9.9-4.2,14.5-6c25.4-10,48.3-23.9,68.9-41.9c6.6-5.8,12.7-12.1,18.9-18.3c1.6-1.6,2.9-2.4,5.3-1.4
		C451,545,468.4,553.4,485.5,564.1z"/>
	<path fill="#1D87C9" d="M235,227.5c-4.4,1.3-9,0.7-13.5,0.5c-16.2-0.9-32.5-0.2-48.7-0.4c-5.1-0.1-6.4,1.3-6.5,6.3
		c-0.2,10-0.1,9.9,9.4,13.1c4.4,1.5,9,2.6,12.2,6.5c-3.5,4-7.1,7.9-10.5,11.9c-1.2,1.4-2.3,1-3.7,0.4c-16.5-6.8-32.5-14.7-47.6-24.2
		c-2.5-1.5-3.3-2.2-0.1-4.1c25-14.9,51.7-25.7,79.6-33.7c18.4-5.2,37.1-8.4,55.9-11c7.2-1,14.2,0.5,22.5,2.3
		c-23.1,8-44.2,17.9-63.3,32.5C225.5,227.5,230.3,227.5,235,227.5z"/>
	<path fill="#1D87C9" d="M188.7,546.7c-5.1,5.2-11.9,6.6-18.5,8.4c-3,0.8-3.9,2.1-3.9,5.1c0.1,12.6-0.9,12.8,12.5,12.6
		c17.1-0.2,34.1-0.4,51.2-0.5c1.7,0,3.5-0.4,5,0.6c-4.7,0-9.4,0-14.1,0c18.8,14.5,39.8,24.4,62.2,32.1c-7.9,2.3-17.2,4.6-33.4,1.8
		c-21.4-3.7-42.6-8.3-63.1-15.3c-19.3-6.6-37.9-14.7-55.5-24.9c-1.2-0.7-2.4-1.5-3.9-2.5c10.8-7.2,22.1-12.8,33.5-18.2
		c5-2.3,10.2-4,15.1-6.4c2.9-1.4,4.8-1.1,6.9,1.3C184.4,543,186.2,545.3,188.7,546.7z"/>
	<path fill="#1D87C9" d="M411.4,522.3c22.2-27.6,32.4-59.8,35.9-94.5c0.8-7.6,1.3-15.2,1.9-22.9c6.4,0,12.8,0.2,19.2,0
		c3.3-0.1,4.3,1,4.2,4.3c-0.4,17.1-3.9,33.7-9,49.9c-6.9,22.1-18.1,42.1-31.9,60.6c-4.9,6.6-4.9,6.6-12.7,4.5
		C416.5,523.6,413.9,522.9,411.4,522.3z"/>
	<path fill="#1D87C9" d="M313.7,570.4c14.6-2.2,29.2-4.7,43.1-10c18.5-7,34.5-17.9,48.7-31.5c4.5,2.1,9.7,2.3,14.2,5
		c-5.6,7.2-12.6,12.4-19,18.3c-15.4,14.3-33.1,25-52,33.9c-10.2,4.8-20.8,8.4-31.5,12c-2.5,0.9-3.6,0.6-3.5-2.5
		C313.9,587.3,313.7,578.8,313.7,570.4z"/>
	<path fill="#1D87C9" d="M449.2,397.4c0.1-18.1-0.8-36.2-4.2-54c-4.3-22.4-12.6-43-26.1-61.5c3.7-1.1,7.8-3.6,11.1-2.8
		c3.4,0.8,4.8,5.8,7,9c16.4,23.8,27.8,49.7,32.8,78.3c1.5,8.6,2.8,17.2,2.8,26c0,3.1-0.8,4.2-3.9,4.1c-4.8-0.2-9.7-0.1-14.5-0.1
		C452.4,396.4,450.7,396.2,449.2,397.4z"/>
	<path fill="#1D87C9" d="M413.4,275.3c-11.4-12-24.2-22-39.1-29.3c-17.7-8.7-36.4-13.7-56-15.8c-1.9-0.2-3.7-0.6-5.5-0.9
		c0-8.1,0.2-16.3,0-24.4c-0.1-3.2,0.9-3.6,3.7-2.7c27.5,8.6,53.3,20.7,75.8,39c10.5,8.5,20.8,17.5,29.8,27.7c1.9,2.2,1,2.8-0.9,3.5
		C418.6,273.2,415.7,273.6,413.4,275.3z"/>
	<path fill="#1D87C9" d="M236.6,573.1c22.3-0.6,44.6-0.6,66.9-1.8c0,8.4-0.3,16.9,0,25.3c0.1,4-1.1,4.8-4.7,3.7
		c-13.3-4-26.5-8.3-39-14.3C251.9,582.1,243.6,578.7,236.6,573.1z"/>
	<path fill="#1D87C9" d="M302.5,228.3c-22-0.3-43.9-0.6-65.9-0.9c8.2-6.1,17.4-10.2,26.6-14.5c10.6-4.9,21.7-8.5,32.9-12
		c6.4-2,6.4-2,6.4,4.4C302.5,213,302.5,220.6,302.5,228.3z"/>
	<path fill="#2087C8" d="M192.7,260.2c1.9,4.2,2.3,8.7,2.5,13.3c-0.6-0.1-1.2-0.2-1.8-0.4c-8.1-2.5-8.1-2.6-2.5-8.8
		C192,263.1,192.7,261.9,192.7,260.2z"/>
	<path fill="#2785C4" d="M194.4,532.7c0,2.7-0.6,5.2-1.8,7.6c-0.1-0.7,0-1.8-0.4-2.2C188.4,534.4,191.8,533.7,194.4,532.7z"/>
	<path fill="#00589C" d="M401.9,345.4c0,6.4,0.1,12.8,0,19.3c-0.2,8.7-3.8,12.2-12.4,12.3c-3.6,0-7.2,0.1-10.8,0
		c-6.3-0.2-8.9-2.5-10.5-8.6c-1.4-5.5-2.9-10.9-5.3-16c-7.3-15-19.6-21.7-36.2-20.3c-14,1.1-23.1,8.3-28.8,20.7
		c-5,11.2-6.4,23.1-7.1,35.2c-1,18.2-0.8,36.3,4.4,54c3.5,11.8,9.3,22.4,22.1,26c20.2,5.7,35.6-0.1,43.4-18.7
		c1.5-3.6,2.8-7.3,3.8-11.1c1.2-4.6,3.9-7.6,8.6-8.1c8.1-0.9,16.3-1.1,24.3,0c7.3,1.1,10.1,5.8,8.4,12.9
		c-7.8,30.7-25.2,52.1-57.7,58.3c-28.6,5.5-56.2,2.3-81.5-12.7c-25-14.8-38.2-38-42.9-66.3c-3.8-23-2.2-45.7,7-67.2
		c13-30.6,36.9-47.9,69.2-54.4c28.8-5.8,56.2-0.6,83.3,8.9c3.5,1.2,6.9,2.9,10.5,4c6,2,8.2,6.4,8.3,12.2
		C401.9,332.2,401.9,338.8,401.9,345.4z"/>
	<path fill="#1D87C9" d="M392.6,345.2c0,6,0,11.9,0,17.9c0,1.1,0.3,2.8-0.3,3.2c-4,2.5-8.4,0.7-12.7,1.2c-2.3,0.3-2.8-1.2-3.2-3.1
		c-1.5-6.7-3.8-13.2-7.1-19.3c-6-11-14.7-18.5-27.2-21c-12.1-2.4-23.9-2.1-34.9,4.1c-12.3,7-18.4,18.5-21.6,31.6
		c-4.4,17.7-5.5,35.6-4.1,53.9c0.9,12.5,2.5,24.8,6.8,36.7c7.5,20.7,26.3,31.2,48.2,28.3c18.9-2.5,28.7-14.2,34.5-30.8
		c3.1-8.9,3-9,12.6-9c3.6,0,7.2,0,10.8,0c2.1,0,2.7,0.5,2.1,2.7c-7.6,28.9-25.3,48.2-57.3,51.8c-21.4,2.4-42.1,0.5-61.6-9.2
		c-23.4-11.5-37.6-30.6-43.5-55.7c-4.8-20.1-4.6-40.3,1.4-60.1c9.6-31.8,31.2-50.8,63.2-58.2c31.6-7.2,61.6-0.2,90.9,11.6
		c2.2,0.9,3,2.3,3,4.7C392.6,332.7,392.6,338.9,392.6,345.2z"/>
</g>
</svg>
