<?xml version="1.0" encoding="utf-8"?>
<!-- Generator: Adobe Illustrator 16.0.0, SVG Export Plug-In . SVG Version: 6.00 Build 0)  -->
<!DOCTYPE svg PUBLIC "-//W3C//DTD SVG 1.1//EN" "http://www.w3.org/Graphics/SVG/1.1/DTD/svg11.dtd">
<svg version="1.1" id="Layer_1" xmlns="http://www.w3.org/2000/svg" xmlns:xlink="http://www.w3.org/1999/xlink" x="0px" y="0px"
	 width="160.959px" height="160.859px" viewBox="0 0 160.959 160.859" enable-background="new 0 0 160.959 160.859"
	 xml:space="preserve">
<path fill-rule="evenodd" clip-rule="evenodd" fill="#1E5581" d="M0,130.113v30.746h30.557h66.925
	c17.381,0,37.74-2.789,49.916-15.626c11.396-11.912,13.562-30.949,13.562-46.242v-5.206H67.636l12.854,17.412h46.507
	c-0.607,5.208-1.769,10.401-3.969,13.021c-4.471,5.295-17.771,5.896-24.21,5.896H30.557V30.745h68.04
	c6.087,0,19.176,0.545,23.661,5.234c2.721,2.842,4.082,8.318,4.756,13.682H80.345L67.598,67.001h93.361v-6.379
	c0-15.398-2.033-35.69-14.348-47.206C134.463,2.052,113.773,0,97.482,0H30.557H0v30.745V130.113L0,130.113z M63.606,88.325
	l-5.859-7.938l5.83-7.927h97.382v15.865H63.606L63.606,88.325z"/>
</svg>
